<?xml version="1.0" standalone="no"?>
<!DOCTYPE svg PUBLIC "-//W3C//DTD SVG 20010904//EN"
 "http://www.w3.org/TR/2001/REC-SVG-20010904/DTD/svg10.dtd">
<svg version="1.0" xmlns="http://www.w3.org/2000/svg"
 width="1001.000000pt" height="1016.000000pt" viewBox="0 0 1001.000000 1016.000000"
 preserveAspectRatio="xMidYMid meet">

<g transform="translate(0.000000,1016.000000) scale(0.100000,-0.100000)"
fill="#000000" stroke="none">
<path d="M4502 8427 c-12 -7 -20 -16 -16 -20 11 -11 15 -77 5 -77 -5 0 -11 5
-13 12 -3 9 -6 9 -12 0 -5 -8 3 -14 23 -18 22 -5 28 -10 22 -18 -5 -6 -12 -25
-16 -43 -6 -30 -8 -31 -31 -21 -18 9 -27 9 -36 0 -7 -7 -16 -8 -23 -2 -6 5
-16 5 -25 -1 -13 -8 -13 -11 2 -23 17 -12 17 -14 -2 -31 -20 -18 -21 -17 -54
20 -29 33 -37 37 -50 26 -22 -18 -32 -80 -17 -104 16 -25 11 -29 -27 -21 -17
4 -32 14 -35 24 -5 21 -31 21 -50 0 -9 -10 -9 -11 1 -6 6 4 12 2 12 -3 0 -6
-5 -11 -11 -11 -6 0 -9 -8 -7 -18 5 -16 2 -17 -17 -8 -14 6 -20 16 -17 28 4
15 1 17 -19 9 -29 -10 -36 -36 -15 -57 18 -18 21 -40 6 -49 -5 -3 -10 -11 -10
-16 0 -6 5 -7 12 -3 8 5 9 2 5 -9 -4 -11 -1 -17 7 -17 20 0 52 -75 36 -85 -17
-11 -11 -45 15 -83 21 -31 23 -38 10 -40 -21 -5 -13 -28 8 -24 19 3 32 -14 17
-23 -15 -9 -12 -35 4 -35 8 0 17 6 20 13 2 6 3 -5 0 -25 -5 -39 3 -47 24 -26
10 10 14 8 18 -10 4 -12 11 -22 17 -22 6 0 7 -3 4 -6 -4 -4 -13 -1 -22 6 -13
11 -19 10 -35 -5 -26 -23 -25 -36 2 -65 15 -15 18 -25 10 -28 -18 -6 6 -43 26
-40 11 2 18 -5 20 -19 3 -18 -2 -23 -17 -23 -12 0 -21 -5 -21 -11 0 -6 8 -9
19 -6 27 7 51 -11 51 -38 0 -14 4 -25 9 -25 5 0 11 -9 14 -20 3 -11 1 -20 -4
-20 -5 0 -9 -3 -9 -8 0 -10 46 -59 62 -65 7 -2 10 -8 6 -12 -4 -4 -13 -3 -20
2 -36 28 -46 23 -45 -23 0 -24 4 -44 8 -44 5 0 8 -16 7 -35 -1 -19 -5 -35 -10
-35 -4 0 -8 5 -8 12 0 6 -3 9 -6 5 -5 -5 19 -67 47 -119 12 -23 -4 -62 -33
-82 -13 -9 -43 -16 -70 -16 -27 0 -48 -3 -48 -8 0 -4 -18 -15 -39 -24 -38 -16
-50 -43 -27 -59 5 -4 6 -15 1 -25 -7 -18 -7 -18 -15 1 -7 20 -7 20 -14 -2 -9
-27 -31 -36 -46 -17 -18 21 -37 17 -88 -18 -26 -18 -48 -33 -50 -34 -2 -1 -5
-8 -6 -16 -6 -26 -18 -48 -25 -43 -12 7 -51 -24 -51 -41 0 -8 -9 -14 -20 -14
-11 0 -20 -4 -20 -9 0 -5 -15 -19 -33 -30 -43 -26 -90 -92 -77 -105 6 -6 19
-11 30 -11 11 0 19 -4 17 -10 -2 -12 -49 -7 -57 6 -3 5 -20 -10 -38 -33 -22
-29 -30 -48 -26 -62 5 -17 4 -19 -7 -9 -10 10 -15 9 -25 -5 -8 -9 -14 -24 -14
-32 0 -8 -16 -33 -34 -54 -28 -33 -37 -38 -60 -32 -15 4 -32 18 -38 31 -6 14
-17 25 -23 25 -7 0 -20 9 -30 20 -10 11 -21 17 -26 14 -4 -2 -15 9 -24 27 -12
23 -22 30 -36 26 -10 -3 -22 -1 -25 4 -3 5 -21 16 -40 24 -23 9 -34 21 -34 35
0 11 -8 23 -17 27 -29 10 -53 35 -46 47 3 6 3 8 -2 4 -4 -4 -31 23 -61 60 -29
37 -67 81 -83 98 -16 18 -37 46 -45 63 -9 17 -23 31 -31 31 -7 0 -20 8 -27 18
-22 29 -99 64 -114 51 -18 -15 -26 -8 -59 55 -31 60 -38 64 -61 41 -23 -22
-37 -18 -56 16 -14 23 -23 29 -38 24 -12 -4 -20 -2 -20 5 0 6 -4 8 -10 5 -6
-3 -10 4 -10 18 0 19 -5 24 -23 22 -24 -3 -65 38 -80 78 -4 10 -27 27 -52 38
-39 17 -75 55 -87 92 -2 4 -12 9 -24 11 -19 4 -20 2 -10 -30 8 -26 12 -30 17
-16 6 16 7 16 14 0 4 -11 -1 -25 -15 -40 -12 -13 -20 -17 -18 -9 2 9 -10 17
-37 23 -39 8 -72 28 -47 28 19 0 14 16 -13 47 -24 27 -24 27 -25 6 0 -13 -4
-23 -10 -23 -5 0 -15 10 -21 23 -7 12 -16 25 -21 28 -14 9 -58 -13 -58 -28 0
-7 -7 -13 -15 -13 -17 0 -20 -25 -5 -35 5 -3 10 -21 10 -38 -1 -30 -1 -31 -15
-12 -8 11 -21 28 -31 37 -9 9 -13 21 -9 27 4 7 -4 11 -19 11 -30 0 -31 -3 -10
-35 15 -23 15 -25 -1 -31 -9 -4 -20 -1 -25 6 -4 7 -16 9 -29 5 -12 -4 -21 -2
-21 4 0 6 -4 11 -10 11 -15 0 -12 -21 7 -42 13 -15 14 -23 4 -44 -6 -14 -9
-29 -6 -34 3 -5 -1 -11 -7 -13 -10 -4 -10 -6 0 -6 6 -1 12 -5 12 -11 0 -5 -7
-7 -15 -4 -9 4 -15 0 -16 -7 -1 -8 -3 -31 -4 -51 -4 -36 8 -52 18 -25 3 7 6 6
6 -5 1 -9 -4 -20 -10 -23 -7 -5 -6 -12 4 -23 8 -10 17 -29 21 -44 3 -15 14
-34 23 -43 9 -10 18 -28 19 -42 2 -14 10 -33 18 -42 23 -25 20 -51 -5 -51 -11
0 -18 -4 -15 -9 4 -5 0 -12 -6 -15 -9 -3 -8 -8 5 -16 9 -6 17 -20 17 -30 0
-11 5 -20 10 -20 6 0 10 -7 10 -15 0 -8 7 -15 15 -15 8 0 15 -7 15 -15 0 -8
-8 -15 -18 -15 -20 0 -52 -29 -52 -48 0 -6 -6 -15 -13 -19 -6 -4 -12 -15 -12
-23 0 -8 -9 -16 -20 -18 -14 -2 -24 6 -33 27 -7 17 -28 39 -46 51 -38 23 -61
27 -32 5 10 -7 15 -18 11 -24 -3 -6 0 -11 8 -11 10 0 13 -8 9 -25 -7 -39 40
-150 76 -179 12 -10 22 -26 20 -35 -1 -9 1 -22 5 -28 5 -7 6 -13 2 -13 -3 0 2
-17 11 -37 9 -21 16 -48 15 -60 0 -15 4 -21 13 -17 13 5 74 -81 81 -115 2 -9
6 -28 10 -42 7 -29 -8 -48 -22 -27 -8 14 -9 19 -11 55 -2 18 -7 22 -28 21 -32
-3 -47 -21 -39 -48 10 -30 39 -26 33 5 -3 13 -1 22 3 19 5 -3 9 -16 9 -30 0
-14 7 -27 15 -30 28 -11 37 -42 24 -82 -9 -26 -9 -37 -1 -40 6 -2 14 -19 18
-38 3 -19 15 -39 26 -45 11 -6 17 -17 14 -25 -5 -14 37 -91 59 -106 13 -10 -8
-44 -25 -40 -6 1 -9 -2 -5 -8 3 -5 17 -7 30 -4 19 5 27 0 40 -25 16 -33 12
-57 -8 -44 -6 3 -1 -8 12 -26 13 -18 20 -35 16 -39 -4 -4 -10 -1 -12 6 -3 6
-10 12 -17 12 -8 0 -25 10 -40 21 -15 12 -30 18 -34 14 -4 -4 0 -10 8 -13 8
-3 29 -20 47 -39 17 -18 36 -33 42 -33 6 0 11 -4 11 -10 0 -5 7 -10 15 -10 15
0 41 -48 31 -57 -2 -2 11 -28 30 -56 19 -28 34 -60 34 -69 0 -12 8 -18 23 -18
12 0 18 -4 12 -8 -5 -4 -10 -24 -11 -44 0 -30 3 -38 17 -38 13 0 16 -5 12 -16
-3 -9 -1 -19 6 -23 16 -10 20 -62 7 -80 -8 -10 -8 -15 2 -18 6 -3 12 -11 12
-19 0 -8 7 -14 16 -14 8 0 12 -5 9 -11 -4 -6 2 -13 14 -16 20 -5 91 -108 91
-133 0 -7 11 -25 25 -42 14 -16 25 -37 25 -47 0 -21 53 -148 69 -164 6 -6 11
-19 11 -28 0 -9 7 -22 15 -29 9 -7 13 -21 10 -31 -3 -9 -1 -20 4 -23 5 -4 17
-20 25 -37 12 -23 13 -36 5 -57 -7 -17 -9 -70 -5 -142 7 -119 5 -133 -38 -308
-30 -118 -32 -148 -12 -155 14 -6 48 85 62 166 4 24 10 35 16 29 6 -6 -2 -53
-21 -127 -36 -135 -34 -125 -21 -125 5 0 16 12 25 28 16 30 16 33 -1 -100 -3
-30 -1 -38 11 -38 9 0 18 7 21 15 4 8 10 15 15 15 9 0 6 -41 -12 -195 -12
-101 -11 -125 1 -125 6 0 10 20 10 44 0 28 7 52 20 69 11 14 20 30 20 36 0 6
7 11 16 11 13 0 15 -6 10 -32 -17 -84 -18 -183 -2 -213 9 -16 16 -38 16 -47 0
-12 8 -18 25 -18 14 0 25 -4 25 -10 0 -17 34 -90 42 -90 5 0 8 7 8 16 0 33 26
5 60 -64 20 -40 41 -77 48 -84 7 -7 12 -27 12 -46 0 -18 5 -42 11 -54 9 -17 8
-19 -5 -11 -20 11 -86 4 -86 -8 0 -5 -8 -9 -17 -9 -15 0 -14 -2 3 -16 19 -15
18 -15 -3 -11 -13 3 -23 1 -23 -4 0 -5 -3 -8 -7 -7 -15 3 -43 -14 -38 -23 7
-11 -72 -32 -102 -26 -12 2 -28 -2 -34 -9 -9 -11 -7 -14 9 -14 12 0 24 -4 27
-10 3 -5 -4 -10 -15 -10 -12 0 -35 -11 -52 -25 -17 -14 -42 -25 -59 -25 -16 0
-29 -4 -29 -10 0 -5 -5 -10 -11 -10 -7 0 -34 -13 -61 -30 -26 -16 -59 -30 -73
-30 -16 0 -32 -11 -47 -30 -12 -16 -27 -30 -34 -30 -7 0 -14 -6 -17 -12 -3
-10 -10 -8 -25 5 -19 18 -20 18 -36 -5 -9 -12 -16 -28 -16 -35 0 -31 -64 -113
-88 -113 -8 0 -12 -6 -9 -14 4 -9 -1 -17 -11 -20 -34 -11 -71 -55 -68 -81 1
-14 5 -28 9 -31 3 -3 -8 -19 -25 -36 -16 -16 -27 -32 -24 -35 3 -3 0 -15 -5
-26 -9 -16 -8 -22 6 -29 15 -9 15 -12 -3 -31 -11 -12 -23 -32 -27 -45 -3 -12
-15 -27 -26 -32 -10 -6 -19 -16 -19 -22 0 -6 -7 -16 -16 -23 -9 -6 -18 -26
-20 -44 -2 -17 -9 -41 -15 -53 -9 -17 -9 -23 0 -26 18 -6 13 -62 -9 -89 -27
-34 -27 -67 -1 -58 11 3 22 1 26 -4 6 -11 -33 -79 -59 -100 -10 -8 -27 -33
-38 -54 -17 -33 -19 -51 -13 -102 8 -79 27 -100 102 -115 32 -7 62 -13 67 -14
6 -1 11 -20 12 -42 4 -61 26 -114 54 -128 14 -7 40 -20 58 -29 43 -22 48 -21
83 4 17 12 39 19 49 16 14 -4 26 3 40 23 30 42 54 43 101 4 36 -30 47 -34 100
-34 48 0 60 3 69 20 6 11 8 25 5 30 -3 5 -1 11 4 15 6 3 15 -4 21 -15 16 -31
30 -15 30 36 0 24 4 44 9 44 16 0 20 54 5 77 -12 20 -11 24 15 46 35 29 45 56
32 90 -8 19 -6 28 4 37 17 14 9 34 -8 23 -24 -15 -38 -11 -47 13 -5 13 -17 24
-25 24 -13 0 -10 9 12 40 15 22 36 42 46 46 9 3 17 11 17 18 0 16 59 76 74 76
7 0 25 14 41 30 16 17 35 30 42 30 7 0 13 6 13 14 0 15 21 26 51 26 11 0 16 5
13 14 -7 17 48 29 58 13 5 -8 18 -1 38 21 17 17 40 32 50 32 11 0 25 9 32 20
7 11 21 20 31 20 11 0 21 9 24 20 3 11 14 20 24 20 11 0 19 4 19 9 0 5 16 15
36 21 19 7 38 18 41 25 2 8 19 17 36 21 18 3 37 10 42 14 6 4 25 11 42 15 18
3 37 13 41 21 10 18 85 38 90 24 6 -16 20 -11 27 9 3 10 27 28 53 41 26 12 55
26 65 32 10 5 31 11 45 13 15 2 37 7 49 11 17 4 25 1 30 -12 4 -10 2 -19 -5
-22 -22 -7 -13 -22 13 -22 23 0 31 -14 26 -44 -1 -5 7 -6 17 -4 12 3 23 -2 31
-14 12 -19 13 -19 32 6 30 38 52 35 33 -4 -9 -16 -12 -35 -9 -41 4 -6 0 -9
-11 -7 -12 2 -19 -4 -22 -17 -2 -16 -1 -17 7 -5 9 12 11 11 11 -7 0 -13 -4
-23 -10 -23 -5 0 -10 -6 -10 -13 0 -8 -9 -22 -20 -32 -11 -10 -20 -28 -20 -40
0 -11 -11 -36 -25 -55 -28 -38 -32 -74 -10 -96 9 -10 15 -11 15 -4 0 7 6 6 15
-4 19 -19 19 -26 0 -26 -16 0 -19 -18 -7 -37 5 -8 13 -9 22 -3 44 28 30 -11
-22 -64 -21 -21 -38 -45 -38 -53 0 -23 -61 -93 -81 -93 -29 0 -50 -43 -61
-125 -8 -54 -15 -75 -26 -75 -9 0 -13 -7 -9 -20 3 -11 1 -20 -4 -20 -5 0 -9
-4 -9 -10 0 -5 -11 -20 -25 -34 -14 -14 -25 -32 -25 -39 0 -8 -7 -17 -15 -21
-9 -3 -15 -18 -15 -37 0 -22 -5 -32 -20 -36 -15 -4 -20 -14 -20 -37 0 -18 -5
-37 -12 -44 -8 -8 -8 -12 -1 -12 6 0 16 6 22 14 21 25 81 11 81 -18 -1 -19
-54 -77 -75 -80 -11 -2 -22 -13 -26 -27 -3 -13 -11 -23 -18 -21 -16 3 -91 -56
-91 -73 0 -7 -9 -15 -20 -18 -13 -3 -18 -11 -14 -20 8 -22 -23 -82 -49 -95
-18 -9 -19 -11 -4 -11 24 -1 22 -31 -2 -31 -11 0 -22 -4 -26 -9 -3 -6 -26 -13
-50 -17 -26 -3 -45 -12 -45 -19 0 -7 -11 -16 -24 -19 -14 -3 -26 -16 -30 -31
-4 -14 -13 -25 -21 -25 -8 0 -33 -9 -55 -21 -31 -16 -54 -20 -102 -18 -48 3
-62 1 -60 -9 4 -20 -24 -42 -55 -43 -17 -1 -21 -3 -10 -6 28 -7 19 -23 -14
-23 -28 0 -30 2 -18 17 13 15 9 16 -49 10 -52 -4 -71 -1 -108 16 -24 12 -44
27 -44 33 0 6 -9 19 -21 30 -21 19 -21 19 -18 0 2 -10 -2 -21 -10 -24 -9 -3
-11 0 -6 9 6 11 5 11 -4 3 -10 -9 -24 0 -63 40 -59 60 -78 48 -24 -16 37 -43
44 -58 26 -58 -5 0 -10 6 -10 13 0 16 -80 100 -88 93 -3 -3 -14 1 -24 11 -17
15 -18 15 -18 -1 0 -13 -11 -8 -47 23 -26 22 -51 38 -55 35 -12 -7 -10 -44 2
-44 6 0 10 -4 10 -10 0 -5 -8 -10 -18 -10 -13 0 -32 26 -62 83 -24 45 -49 88
-56 94 -7 7 -18 26 -26 43 -7 16 -16 30 -20 30 -4 0 -19 12 -33 27 l-25 28 0
-33 c0 -17 -5 -32 -12 -32 -6 0 -4 -7 5 -18 22 -24 21 -41 -1 -35 -29 7 -58
107 -92 323 -7 44 -11 45 -14 5 0 -11 -8 -21 -16 -23 -17 -3 -40 65 -40 117 0
15 -9 38 -20 51 -11 13 -20 31 -20 41 0 23 -16 33 -23 15 -3 -7 -3 -32 0 -53
3 -26 1 -43 -7 -48 -8 -5 -11 -1 -9 11 1 11 -3 30 -8 44 -6 14 -8 29 -5 35 7
11 1 120 -8 160 -1 6 -2 31 -1 57 2 51 -13 64 -29 26 -7 -19 -9 -14 -9 25 -1
26 4 47 9 47 6 0 10 13 10 28 0 16 7 51 15 78 8 27 15 51 15 53 0 2 -11 -9
-25 -25 -14 -16 -25 -24 -25 -17 0 6 5 15 10 18 6 4 8 24 6 46 -3 27 -2 37 6
33 7 -5 9 0 6 14 -3 12 -1 23 6 26 8 3 8 5 0 5 -22 2 29 145 62 179 17 17 18
32 2 32 -7 0 -3 9 10 18 16 12 24 30 25 53 2 34 2 34 -41 32 -38 -2 -41 0 -32
17 5 10 11 42 12 70 1 29 4 47 6 41 5 -14 78 43 93 71 8 15 8 22 0 28 -15 8 1
47 41 104 16 22 26 41 23 44 -6 7 -55 -27 -55 -38 0 -6 -4 -10 -10 -10 -18 0
-10 16 24 52 34 35 39 61 8 35 -13 -10 -14 -9 -7 3 4 8 14 22 20 30 7 8 15 26
18 40 4 14 23 52 43 85 20 33 37 68 39 77 2 10 10 30 19 45 17 33 46 109 46
123 0 6 -8 10 -17 10 -31 0 -60 82 -62 173 -1 18 -6 27 -17 27 -10 0 -14 -5
-10 -16 3 -8 2 -12 -4 -9 -6 3 -10 17 -10 29 0 25 -22 51 -33 39 -4 -3 -2 -12
4 -19 11 -14 9 -57 -3 -52 -4 2 -13 -5 -21 -15 -11 -17 -15 -17 -25 -4 -14 16
-51 12 -65 -7 -5 -7 -13 -3 -24 11 -8 13 -21 23 -29 23 -9 0 -10 8 -4 30 7 26
6 30 -10 30 -10 0 -20 7 -24 15 -3 8 -12 15 -20 15 -7 0 -16 10 -19 21 -5 17
-12 21 -36 17 -17 -3 -31 -1 -31 4 0 4 -4 8 -10 8 -5 0 -10 -11 -10 -24 0 -14
-10 -32 -22 -41 -18 -12 -20 -19 -13 -33 12 -20 8 -62 -6 -62 -5 0 -9 5 -9 10
0 6 -7 10 -16 10 -10 0 -14 -5 -10 -15 4 -10 -3 -20 -19 -27 -14 -6 -25 -16
-25 -21 0 -5 7 -4 15 3 12 10 15 10 15 -3 0 -9 -7 -20 -15 -24 -10 -6 -11 -13
-5 -23 9 -13 11 -13 20 0 8 12 12 11 30 -8 30 -32 47 -23 64 31 8 25 56 23 56
-3 0 -11 3 -20 8 -20 4 0 7 -10 8 -22 0 -13 2 -29 5 -37 2 -9 -8 -20 -23 -28
-16 -8 -28 -20 -28 -27 0 -17 -33 -46 -52 -46 -9 0 -18 -7 -22 -15 -3 -8 -12
-15 -21 -15 -8 0 -15 -5 -15 -10 0 -6 -11 -22 -24 -35 -14 -13 -30 -41 -38
-62 -14 -43 -57 -125 -69 -133 -4 -3 -10 -23 -12 -45 -2 -22 -9 -53 -16 -68
-9 -23 -8 -29 5 -34 8 -3 13 -12 10 -20 -3 -8 -1 -23 4 -33 8 -15 6 -21 -7
-29 -10 -5 -14 -13 -10 -17 4 -4 14 1 21 12 12 15 17 17 28 6 10 -10 4 -20
-35 -55 -26 -24 -47 -48 -47 -54 0 -5 -9 -18 -20 -28 -11 -10 -20 -26 -20 -36
0 -10 -9 -24 -20 -32 -14 -10 -25 -37 -36 -88 -8 -40 -17 -75 -19 -78 -3 -2
-9 7 -14 20 -9 23 -10 22 -10 -9 -1 -19 -6 -31 -13 -30 -6 2 -15 -13 -20 -32
-14 -60 -21 -282 -10 -322 12 -43 3 -58 -15 -26 -12 22 -12 21 -13 -15 0 -27
-4 -37 -12 -34 -7 2 -12 11 -10 19 1 8 -10 25 -24 39 l-27 24 8 -30 c11 -43
21 -88 43 -187 11 -48 25 -95 32 -103 7 -8 14 -30 16 -48 2 -17 6 -42 9 -53 3
-13 -2 -27 -10 -34 -18 -15 -12 -41 18 -82 11 -14 17 -33 14 -42 -3 -8 -2 -18
4 -21 5 -4 9 -23 9 -43 -1 -49 10 -102 21 -102 5 0 9 -9 9 -20 0 -11 6 -20 14
-20 16 0 31 -34 21 -50 -3 -5 5 -22 19 -37 15 -15 27 -32 27 -38 1 -5 3 -29 4
-52 2 -36 0 -43 -16 -43 -11 0 -19 -4 -19 -10 0 -5 7 -7 15 -3 9 3 15 2 14 -3
-5 -26 2 -36 22 -31 16 4 24 -2 35 -29 8 -19 12 -39 8 -45 -3 -6 3 -18 14 -27
11 -9 38 -33 61 -52 22 -19 41 -41 41 -48 0 -7 13 -15 29 -18 17 -4 33 -16 40
-30 6 -13 16 -24 22 -24 6 0 9 -7 5 -15 -8 -23 4 -45 24 -45 23 0 35 -16 18
-23 -7 -3 1153 -6 2579 -6 1791 -1 2594 2 2598 9 4 6 -1 22 -9 35 -9 14 -14
25 -10 25 3 0 -4 15 -15 34 -25 40 -26 50 -5 42 8 -3 13 -2 10 3 -3 5 1 11 9
14 9 4 14 21 15 49 0 24 1 58 2 77 1 20 -5 38 -14 45 -8 6 -17 22 -21 35 -4
18 -3 21 6 12 6 -6 19 -11 29 -11 25 0 25 50 0 57 -15 3 -18 14 -18 46 1 34
-3 44 -21 52 -26 11 -32 28 -7 18 11 -4 23 2 35 18 23 29 24 51 4 89 -13 26
-14 30 -1 30 11 0 15 11 14 39 0 22 2 44 6 49 3 5 -1 13 -10 16 -13 5 -15 2
-11 -14 3 -11 1 -20 -3 -20 -17 0 -16 26 2 50 16 20 17 26 6 35 -15 11 -32 45
-30 58 1 4 -3 7 -8 7 -6 0 -14 8 -18 18 -17 39 -48 82 -59 82 -9 0 -10 7 -3
24 6 17 4 30 -8 47 -11 16 -12 24 -4 27 7 2 9 15 5 33 -3 17 -1 29 5 29 5 0
12 9 15 20 3 14 12 19 27 18 20 -3 23 2 23 37 0 34 -3 40 -22 41 -25 1 -42 14
-18 14 14 0 16 11 13 71 -2 39 -9 76 -15 82 -6 6 -11 18 -11 27 0 9 -5 21 -12
28 -7 7 -8 12 -3 12 4 0 -3 9 -15 20 -13 12 -25 30 -27 42 -2 12 -7 25 -11 28
-9 6 -42 77 -46 100 -1 3 -5 10 -9 17 -8 12 10 29 20 19 3 -3 14 -1 25 5 19
10 18 11 -6 33 -30 25 -33 36 -10 36 12 0 14 5 9 17 -5 10 -9 34 -10 53 -1 19
-6 50 -10 68 -7 30 -6 32 19 32 29 0 35 20 11 40 -24 20 -19 50 9 50 13 0 26
-6 29 -12 2 -7 8 -10 12 -6 4 4 -4 20 -18 34 -25 24 -29 52 -6 38 5 -3 16 0
24 6 8 7 22 10 30 6 8 -3 15 -1 15 4 0 6 7 10 16 10 8 0 12 5 9 10 -3 6 -1 10
4 10 6 0 11 7 11 15 0 8 5 15 10 15 6 0 10 -8 10 -18 0 -14 8 -19 32 -20 17 0
35 -7 40 -14 6 -10 17 -3 43 27 19 22 35 46 35 53 0 6 5 12 10 12 6 0 10 -4
10 -10 0 -19 17 -10 28 15 13 28 20 30 42 14 12 -8 12 -12 2 -16 -9 -3 -10 -9
-3 -17 7 -8 6 -21 -4 -39 -8 -15 -10 -27 -5 -27 4 0 10 7 14 15 3 8 13 15 22
15 10 0 14 6 11 14 -3 8 5 18 19 25 33 15 36 14 33 -6 -1 -10 -1 -29 0 -43 1
-22 3 -23 14 -9 17 22 87 35 87 16 0 -18 95 -66 112 -56 9 6 9 13 0 34 -16 34
-15 35 7 35 11 0 21 9 24 21 8 29 31 19 35 -14 2 -15 9 -27 15 -27 7 0 6 -4
-3 -10 -13 -8 -12 -10 3 -10 9 0 17 -4 17 -10 0 -20 18 -9 24 15 8 32 14 31
54 -5 18 -17 37 -30 42 -30 5 0 15 -3 24 -6 12 -4 16 0 16 15 0 22 0 22 30 4
17 -9 30 -25 30 -35 0 -10 11 -23 24 -28 26 -10 43 -33 62 -88 12 -33 11 -35
-37 -85 -27 -29 -49 -61 -49 -72 0 -11 -7 -29 -15 -39 -8 -11 -13 -28 -10 -37
3 -10 1 -20 -5 -24 -5 -3 -10 -13 -10 -21 0 -19 74 -94 93 -94 8 0 17 -7 21
-15 12 -33 66 -17 133 40 7 5 19 16 28 23 9 8 26 11 40 8 20 -5 25 -14 31 -56
4 -33 11 -50 21 -50 7 0 16 -6 19 -14 3 -8 20 -18 37 -22 17 -3 40 -12 49 -18
14 -8 21 -8 27 3 5 8 16 11 25 8 11 -4 18 1 22 18 7 28 14 31 32 13 10 -10 15
-10 22 2 13 19 12 30 0 30 -5 0 -10 5 -10 11 0 6 8 8 19 4 15 -4 20 0 23 17 4
31 31 34 67 9 21 -15 30 -18 34 -9 3 10 7 10 19 0 31 -25 138 15 138 52 0 12
10 42 22 67 21 44 24 82 8 125 -7 19 -3 26 30 49 34 24 59 69 46 83 -3 3 2 11
12 19 12 10 14 16 5 19 -23 10 -14 26 10 18 22 -7 22 -7 3 15 -13 15 -23 18
-30 11 -15 -15 -26 -12 -26 9 0 10 -7 24 -15 31 -8 7 -15 23 -15 36 0 13 -8
33 -17 43 -35 39 -43 50 -43 66 0 24 16 17 44 -20 15 -19 31 -35 37 -35 12 0
4 49 -11 64 -5 5 -10 18 -10 27 0 9 -7 19 -15 23 -8 3 -15 17 -15 30 0 15 -8
30 -20 36 -16 9 -18 15 -10 36 13 33 13 34 -5 34 -8 0 -15 8 -15 19 0 11 -10
22 -22 26 -18 5 -19 8 -8 12 8 3 18 11 22 17 9 14 -11 38 -25 29 -6 -4 -8 0
-4 10 9 24 -14 74 -41 87 -19 8 -23 16 -18 35 5 18 2 25 -9 25 -8 0 -15 8 -15
18 0 32 -29 63 -53 56 -12 -3 -19 -3 -15 1 4 4 3 16 -3 27 -15 27 -4 54 15 39
9 -7 17 -8 20 -3 3 6 -5 17 -19 26 -13 9 -22 22 -19 29 3 8 -4 24 -14 37 -15
18 -31 25 -68 27 -175 9 -214 19 -197 46 4 7 -7 8 -33 4 -21 -3 -48 -1 -59 3
-18 8 -17 9 6 9 31 1 52 23 47 48 -3 14 -12 17 -36 15 -30 -2 -32 0 -26 23 5
20 2 25 -12 27 -26 2 -36 4 -54 11 -39 16 -78 11 -83 -11 -4 -13 -5 -11 -6 6
0 12 -2 22 -4 22 -1 0 -18 -5 -37 -10 -25 -7 -43 -7 -64 2 -23 9 -31 9 -34 0
-5 -16 -23 -15 -19 1 1 6 -4 12 -10 11 -7 -1 -25 -2 -39 -2 -16 -1 -28 -9 -31
-22 -4 -15 -11 -18 -32 -14 -19 4 -32 0 -45 -15 -20 -22 -36 -27 -36 -12 0 5
9 13 20 16 11 4 17 11 14 17 -4 6 -10 6 -17 -1 -16 -16 -24 -14 -30 10 -3 11
-15 23 -26 26 -11 3 -23 13 -26 24 -4 11 -12 16 -21 12 -7 -3 -14 0 -14 6 0 6
4 11 8 11 5 0 15 11 22 25 8 14 24 28 37 31 13 4 23 12 23 20 0 8 9 13 21 11
12 -1 24 4 26 11 3 6 -2 12 -11 12 -10 0 -13 6 -10 15 4 8 12 15 19 15 18 0
28 32 13 42 -10 6 -9 8 4 8 10 0 15 5 12 13 -6 16 53 83 64 73 4 -4 -1 -13
-11 -20 -9 -7 -17 -21 -17 -30 0 -9 -4 -16 -9 -16 -11 0 -21 -49 -10 -55 4 -3
14 7 21 22 10 20 20 27 36 25 25 -4 30 13 7 22 -26 10 -17 29 10 22 24 -6 35
7 15 19 -5 3 -10 13 -10 21 0 8 4 13 9 9 13 -7 31 27 31 56 0 12 3 20 6 16 7
-7 54 41 54 55 0 5 4 6 10 3 5 -3 15 7 21 22 45 112 89 176 89 127 0 -28 34
-11 44 24 6 17 3 22 -11 23 -10 1 -1 6 20 11 20 6 37 13 38 16 0 4 2 30 2 58
2 52 25 94 52 94 7 0 16 11 19 25 4 14 11 25 16 25 14 0 13 -27 -1 -32 -7 -2
-6 -15 4 -38 12 -28 16 -31 16 -13 1 12 8 28 16 37 17 17 20 30 5 21 -5 -3
-10 3 -10 14 0 12 5 21 10 21 6 0 10 31 10 73 0 80 6 96 26 69 11 -15 13 -14
20 12 4 16 2 43 -5 61 -14 41 -14 68 2 84 10 11 8 13 -10 8 -13 -3 -23 -1 -23
3 0 54 55 54 92 0 22 -32 34 -40 58 -40 37 0 38 9 4 49 -14 17 -23 35 -20 40
4 5 41 12 84 16 68 6 285 47 397 74 22 6 74 18 116 26 75 16 122 35 88 35 -18
0 -275 -54 -329 -70 -41 -11 -137 -26 -277 -44 l-101 -12 -17 36 c-17 36 -23
54 -32 103 -6 32 12 37 22 6 9 -28 64 -89 81 -89 19 0 17 19 -6 58 -25 41 -25
40 5 34 30 -5 31 2 5 51 -27 49 -19 61 37 53 28 -4 42 -2 38 4 -3 6 -33 10
-66 10 -35 0 -59 4 -59 11 0 5 -14 24 -30 42 -32 34 -46 64 -35 75 4 4 12 0
18 -9 7 -8 24 -31 40 -50 l27 -34 19 24 c13 17 24 22 37 17 15 -6 17 -5 7 5
-19 19 -16 29 8 29 12 0 30 10 40 22 25 28 24 31 -6 24 -14 -4 -33 -2 -42 3
-10 5 -32 15 -49 21 -18 6 -44 25 -60 41 -27 28 -20 38 15 20 22 -12 150 -29
172 -24 29 8 -28 50 -87 64 -48 12 -124 61 -124 81 0 11 42 0 51 -14 4 -7 9
-6 13 0 4 6 22 8 41 5 21 -3 35 -1 35 5 0 5 -17 13 -37 16 -68 12 -75 16 -62
32 6 8 8 14 3 15 -5 0 1 4 14 9 22 9 31 30 12 30 -6 0 -27 7 -48 16 -32 13
-35 17 -21 27 22 17 6 40 -42 60 -20 8 -48 28 -63 43 l-26 29 27 6 c28 6 25 8
-19 23 -9 3 -22 24 -29 48 -7 24 -17 49 -23 57 -9 11 -3 12 33 6 52 -9 49 8
-5 25 -52 18 -62 3 -42 -60 9 -27 13 -50 10 -50 -17 1 -52 40 -47 52 3 8 -7
18 -26 27 -18 8 -37 27 -44 46 -8 17 -21 37 -29 45 -20 16 -21 31 -1 24 25
-10 17 25 -12 57 -16 16 -34 29 -40 29 -7 0 -13 7 -13 15 0 7 -8 19 -17 25
-15 9 -11 10 17 6 64 -11 217 -16 185 -7 -50 14 -158 34 -197 36 -20 2 -47 10
-60 20 -22 16 -21 16 32 10 30 -3 62 -8 71 -11 8 -2 23 2 33 9 20 15 26 11
-74 48 -16 6 -27 15 -24 20 3 5 0 9 -7 9 -33 0 -188 55 -219 78 -66 49 -140
117 -140 130 0 6 -7 12 -15 12 -8 0 -15 7 -15 15 0 8 -8 19 -18 24 -10 5 -24
22 -32 38 -18 36 -53 81 -107 141 -24 25 -45 54 -49 64 -3 10 -11 18 -18 18
-8 0 -46 29 -85 65 -60 53 -199 141 -234 148 -5 1 -14 -12 -21 -30 -18 -50
-30 -53 -22 -5 6 38 3 46 -16 62 -13 10 -41 22 -63 25 -68 12 -148 42 -134 51
9 5 8 9 -7 15 -12 4 -26 1 -36 -8 -15 -14 -19 -14 -32 0 -11 11 -12 17 -4 19
7 3 8 10 3 18 -6 10 -10 10 -21 -4 -11 -16 -13 -16 -19 3 -4 12 -15 21 -27 21
-30 0 -78 32 -78 52 0 14 -6 16 -35 11 -29 -5 -40 -1 -62 21 -44 44 -58 32
-55 -47 1 -40 -2 -67 -8 -67 -13 0 -21 36 -18 89 3 40 0 47 -28 66 -17 11 -28
27 -26 34 4 11 -3 13 -26 8 -30 -6 -31 -6 -30 34 0 21 4 42 9 45 5 3 9 10 9
15 0 6 -13 1 -29 -10 -16 -12 -31 -21 -34 -21 -9 0 -14 51 -6 56 19 11 7 41
-31 77 -22 20 -40 44 -40 53 0 15 -47 68 -62 70 -4 1 -12 2 -17 3 -5 0 -12 17
-15 36 -4 20 -11 33 -15 30 -8 -5 -33 26 -56 70 -6 11 -19 19 -28 17 -10 -2
-17 4 -17 12 0 8 -12 24 -27 35 -51 38 -53 41 -47 67 5 21 3 24 -17 22 -16 -2
-27 4 -34 20 -6 13 -19 22 -32 22 -12 0 -27 9 -33 19 -5 11 -18 22 -28 25 -10
3 -23 19 -29 36 -6 17 -19 30 -28 30 -9 0 -13 5 -10 11 8 13 -24 51 -37 43 -5
-3 -6 -15 -3 -27 5 -17 1 -15 -14 8 -17 25 -18 31 -6 33 8 2 15 8 15 13 0 6
-9 8 -20 4 -16 -5 -23 1 -36 34 -9 23 -21 41 -26 41 -6 0 -19 10 -30 23 -14
15 -31 22 -56 23 -32 0 -37 3 -34 21 2 18 -1 20 -20 16 -22 -6 -22 -5 -5 14
21 24 22 33 2 33 -8 0 -15 5 -15 11 0 6 -7 9 -15 6 -8 -4 -17 -2 -21 4 -3 6
-16 14 -27 18 -12 5 -22 17 -22 27 0 14 -6 18 -21 16 -14 -2 -30 8 -46 26 -13
16 -29 27 -36 24 -7 -2 -12 3 -12 12 0 9 -6 16 -13 16 -8 0 -24 11 -37 25 -12
13 -28 23 -34 22 -6 -1 -10 8 -8 22 2 15 0 21 -7 17 -6 -4 -11 -3 -11 3 0 11
-44 61 -54 61 -14 0 -66 44 -66 56 0 6 -9 14 -20 17 -13 3 -18 10 -14 21 7 19
-3 20 -34 3z m618 -531 c0 -3 -4 -8 -10 -11 -5 -3 -10 -1 -10 4 0 6 5 11 10
11 6 0 10 -2 10 -4z m147 -188 c-3 -8 -6 -5 -6 6 -1 11 2 17 5 13 3 -3 4 -12
1 -19z m-982 -128 c3 -5 1 -10 -4 -10 -6 0 -11 5 -11 10 0 6 2 10 4 10 3 0 8
-4 11 -10z m85 -434 c0 -3 -4 -8 -10 -11 -5 -3 -10 -1 -10 4 0 6 5 11 10 11 6
0 10 -2 10 -4z m-2090 -86 c0 -5 -7 -10 -16 -10 -8 0 -12 5 -9 10 3 6 10 10
16 10 5 0 9 -4 9 -10z m2070 -174 c0 -3 -4 -8 -10 -11 -5 -3 -10 -1 -10 4 0 6
5 11 10 11 6 0 10 -2 10 -4z m-1690 -27 c0 -6 -4 -7 -10 -4 -5 3 -10 11 -10
16 0 6 5 7 10 4 6 -3 10 -11 10 -16z m3382 -183 c1 -25 0 -55 -3 -68 -4 -19
-6 -16 -12 17 -9 56 -9 95 2 95 5 0 11 -20 13 -44z m-4095 -88 c-3 -7 -5 -2
-5 12 0 14 2 19 5 13 2 -7 2 -19 0 -25z m4670 -70 c-3 -8 -6 -5 -6 6 -1 11 2
17 5 13 3 -3 4 -12 1 -19z m-559 -213 c-1 -107 -5 -192 -10 -189 -16 10 -8
384 8 384 2 0 3 -88 2 -195z m553 124 l-9 -34 -1 46 c-1 25 2 49 7 53 12 12
14 -29 3 -65z m-301 -28 c0 -32 -6 -24 -14 19 -4 25 -3 31 4 20 5 -8 10 -26
10 -39z m-2610 -19 c0 -21 -36 -46 -52 -36 -7 5 -1 16 18 31 35 28 34 27 34 5z
m2894 -57 c-4 -8 -8 -15 -10 -15 -2 0 -4 7 -4 15 0 8 4 15 10 15 5 0 7 -7 4
-15z m-2969 -35 c3 -5 -1 -10 -9 -10 -9 0 -16 5 -16 10 0 6 4 10 9 10 6 0 13
-4 16 -10z m2163 -65 c-3 -3 -9 2 -12 12 -6 14 -5 15 5 6 7 -7 10 -15 7 -18z
m-1620 -80 c-3 -3 -9 2 -12 12 -6 14 -5 15 5 6 7 -7 10 -15 7 -18z m1892 -126
c0 -24 -4 -38 -10 -34 -5 3 -10 24 -10 46 0 24 4 38 10 34 6 -3 10 -24 10 -46z
m982 -149 c225 -40 346 -110 423 -245 15 -28 43 -72 61 -100 37 -55 53 -114
54 -190 0 -59 -31 -235 -42 -235 -4 0 -5 12 -3 28 25 140 22 219 -11 285 -8
16 -14 39 -14 52 0 13 -6 28 -13 32 -24 15 -57 66 -57 87 0 20 -86 106 -129
130 -9 4 -33 20 -54 34 -46 31 -137 52 -228 52 -60 0 -76 -5 -179 -56 -63 -31
-128 -71 -145 -88 -17 -18 -45 -43 -62 -56 -40 -32 -109 -158 -94 -173 6 -6 7
-15 2 -21 -4 -6 -16 -45 -26 -86 -9 -41 -23 -84 -30 -96 -29 -46 7 -202 67
-286 29 -42 118 -126 140 -133 9 -3 23 -16 32 -30 8 -13 30 -26 48 -30 44 -9
99 -25 120 -36 10 -5 30 -9 46 -9 15 0 33 -5 40 -12 9 -9 24 -7 64 9 29 12 72
24 95 28 22 4 49 15 59 26 9 10 24 19 32 19 30 0 152 82 173 116 22 36 39 44
39 19 0 -31 -154 -205 -181 -205 -9 0 -19 -7 -23 -15 -3 -8 -10 -15 -17 -15
-6 0 -23 -8 -37 -19 -15 -10 -83 -37 -151 -60 -134 -46 -187 -49 -277 -17 -22
7 -58 17 -82 21 -23 4 -42 11 -42 16 0 5 -16 9 -36 9 -35 0 -63 18 -147 93
-18 16 -44 33 -59 39 -15 5 -31 21 -36 38 -6 16 -20 33 -31 40 -14 7 -21 21
-21 40 0 16 -5 32 -11 36 -18 11 -61 115 -72 174 -6 30 -10 80 -9 110 1 30 -3
67 -9 82 -9 21 -7 36 10 73 12 26 21 52 21 57 0 13 86 146 115 178 13 14 43
47 66 73 75 84 231 185 329 212 32 9 200 23 222 18 9 -2 40 -8 70 -13z m-2542
-224 c0 -6 -7 -2 -15 8 -8 11 -15 25 -15 30 0 6 7 2 15 -8 8 -11 15 -25 15
-30z m3525 -476 c3 -5 2 -10 -4 -10 -5 0 -13 5 -16 10 -3 6 -2 10 4 10 5 0 13
-4 16 -10z m-2664 -27 c26 -11 50 -26 53 -32 4 -6 14 -11 22 -11 8 0 34 -9 56
-20 23 -11 50 -20 59 -20 10 0 20 -4 24 -9 3 -6 26 -20 50 -32 25 -12 45 -28
45 -36 0 -7 6 -13 14 -13 14 0 126 -108 126 -120 0 -4 15 -23 34 -44 19 -20
38 -50 41 -67 4 -16 10 -29 15 -29 4 0 10 -22 12 -49 2 -36 0 -47 -10 -44 -7
3 -10 13 -7 24 6 18 -22 79 -37 79 -14 0 -88 82 -82 91 3 6 3 17 -1 27 -5 13
-8 14 -15 3 -6 -11 -14 -8 -35 15 -15 16 -32 36 -39 45 -18 26 -72 49 -115 49
-22 0 -42 4 -46 10 -3 5 -36 7 -73 5 -70 -4 -85 -6 -165 -24 -52 -12 -217
-100 -217 -116 0 -5 -20 -25 -44 -43 -82 -61 -157 -267 -148 -404 1 -21 11
-58 22 -84 11 -25 18 -50 15 -54 -9 -15 16 -65 49 -95 18 -16 36 -40 40 -51
10 -33 87 -104 112 -104 14 0 24 -8 29 -22 4 -14 8 -18 12 -10 6 15 23 16 23
1 0 -21 27 -37 91 -53 71 -17 102 -20 113 -9 3 4 37 7 74 8 42 0 80 7 101 18
19 9 39 17 46 17 6 0 26 17 43 39 23 29 40 40 71 45 23 3 41 11 41 16 0 6 5
10 10 10 6 0 10 -4 10 -8 0 -13 -53 -68 -77 -81 -13 -6 -23 -17 -23 -24 0 -20
-69 -83 -134 -122 -32 -19 -60 -35 -63 -35 -2 0 -19 -11 -36 -24 -41 -30 -119
-57 -182 -63 -27 -2 -65 -8 -84 -13 -37 -10 -207 2 -301 21 -30 6 -66 20 -80
29 -14 10 -50 30 -80 44 -107 50 -222 148 -286 244 -20 28 -40 52 -44 52 -12
0 -76 107 -95 160 -23 63 -30 171 -14 217 7 21 14 47 15 58 6 70 27 173 39
192 8 12 15 34 15 49 0 50 70 150 157 224 59 50 143 100 169 100 8 0 25 6 37
14 12 7 42 17 66 20 24 4 49 10 55 14 6 4 52 17 101 29 124 30 355 28 426 -4z
m589 -610 l-1 -38 -15 28 c-15 27 -12 47 7 47 5 0 9 -17 9 -37z m2060 -53 c0
-5 -4 -10 -10 -10 -5 0 -10 5 -10 10 0 6 5 10 10 10 6 0 10 -4 10 -10z m-2060
-77 c0 -5 -5 -15 -10 -23 -8 -12 -10 -11 -10 8 0 12 5 22 10 22 6 0 10 -3 10
-7z m700 -13 c0 -5 -16 -17 -35 -26 -19 -9 -35 -20 -35 -25 0 -4 -17 -11 -37
-15 -21 -4 -55 -15 -75 -25 -42 -21 -48 -23 -48 -10 0 5 8 11 18 15 9 3 31 14
47 24 23 15 150 70 163 72 1 0 2 -4 2 -10z m-740 -136 c-12 -35 -14 -37 -21
-16 -11 29 7 80 22 65 8 -8 8 -22 -1 -49z m-88 -146 c-6 -6 -15 -8 -19 -4 -4
4 -1 11 7 16 8 5 17 7 19 4 3 -2 -1 -10 -7 -16z m1978 -108 c0 -5 -5 -10 -11
-10 -5 0 -7 5 -4 10 3 6 8 10 11 10 2 0 4 -4 4 -10z m-5100 -146 c0 -8 -5 -12
-10 -9 -6 4 -8 11 -5 16 9 14 15 11 15 -7z m4610 -695 c0 -11 -4 -17 -10 -14
-5 3 -10 13 -10 21 0 8 5 14 10 14 6 0 10 -9 10 -21z m280 -3 c0 -3 -4 -8 -10
-11 -5 -3 -10 -1 -10 4 0 6 5 11 10 11 6 0 10 -2 10 -4z m-4770 -53 c-4 -42
-5 -44 -8 -15 -3 30 2 62 10 62 2 0 1 -21 -2 -47z m4587 11 c-3 -3 -12 -4 -19
-1 -8 3 -5 6 6 6 11 1 17 -2 13 -5z m-5807 -149 c0 -8 -4 -15 -10 -15 -5 0 -7
7 -4 15 4 8 8 15 10 15 2 0 4 -7 4 -15z m237 -81 c-3 -3 -12 -4 -19 -1 -8 3
-5 6 6 6 11 1 17 -2 13 -5z m1253 -160 c0 -77 -27 -63 -30 16 -3 51 -2 54 15
40 9 -8 15 -29 15 -56z m37 -6 c-3 -7 -5 -2 -5 12 0 14 2 19 5 13 2 -7 2 -19
0 -25z m3893 -469 c0 -11 -4 -18 -10 -14 -5 3 -7 12 -3 20 7 21 13 19 13 -6z
m-230 -55 c0 -8 -4 -12 -10 -9 -5 3 -10 10 -10 16 0 5 5 9 10 9 6 0 10 -7 10
-16z m-2820 -234 c-6 -11 -15 -18 -21 -15 -5 4 -1 16 8 30 21 27 30 16 13 -15z
m-1356 -916 c9 -22 -3 -32 -14 -14 -12 19 -12 30 -1 30 5 0 12 -7 15 -16z
m-97 -150 c-3 -3 -12 -4 -19 -1 -8 3 -5 6 6 6 11 1 17 -2 13 -5z m-267 -599
c20 -24 6 -28 -15 -5 -10 11 -13 20 -8 20 6 0 16 -7 23 -15z"/>
<path d="M6486 5309 c-19 -62 -18 -59 -7 -59 8 0 33 102 26 108 -2 2 -11 -20
-19 -49z"/>
<path d="M4110 8149 c0 -5 5 -7 10 -4 6 3 10 8 10 11 0 2 -4 4 -10 4 -5 0 -10
-5 -10 -11z"/>
<path d="M4080 7930 c0 -11 5 -20 10 -20 6 0 10 9 10 20 0 11 -4 20 -10 20 -5
0 -10 -9 -10 -20z"/>
<path d="M1436 7797 c3 -10 9 -15 12 -12 3 3 0 11 -7 18 -10 9 -11 8 -5 -6z"/>
<path d="M1540 7520 c0 -16 38 -88 50 -95 14 -9 13 -5 -15 53 -24 50 -35 63
-35 42z"/>
<path d="M2080 7512 c6 -13 14 -21 18 -18 3 4 -2 14 -12 24 -18 16 -18 16 -6
-6z"/>
<path d="M2119 7445 c9 -19 19 -34 24 -35 9 0 -19 56 -32 64 -4 3 -1 -10 8
-29z"/>
<path d="M2170 7365 c0 -3 9 -22 20 -42 11 -21 20 -32 20 -25 0 15 -28 72 -35
72 -3 0 -5 -2 -5 -5z"/>
<path d="M2494 7305 c8 -19 20 -43 26 -52 9 -15 10 -14 4 7 -8 30 -33 80 -39
80 -3 0 1 -16 9 -35z"/>
<path d="M1664 7296 c14 -19 26 -39 26 -44 0 -4 13 -26 30 -48 16 -21 30 -43
30 -48 0 -10 31 -35 43 -36 4 0 -3 15 -15 33 -13 19 -45 66 -71 105 -26 40
-53 72 -59 72 -6 0 1 -15 16 -34z"/>
<path d="M2220 7271 c0 -6 4 -13 10 -16 6 -3 7 1 4 9 -7 18 -14 21 -14 7z"/>
<path d="M2220 7180 c0 -5 5 -10 10 -10 6 0 10 5 10 10 0 6 -4 10 -10 10 -5 0
-10 -4 -10 -10z"/>
<path d="M2610 7074 c0 -6 7 -19 16 -30 14 -18 14 -18 3 6 -14 31 -19 36 -19
24z"/>
<path d="M1800 7050 c0 -5 5 -10 11 -10 5 0 7 5 4 10 -3 6 -8 10 -11 10 -2 0
-4 -4 -4 -10z"/>
<path d="M5950 6999 c0 -5 5 -7 10 -4 6 3 10 8 10 11 0 2 -4 4 -10 4 -5 0 -10
-5 -10 -11z"/>
<path d="M2828 6873 c15 -26 33 -48 40 -51 16 -5 -38 86 -55 92 -6 3 0 -16 15
-41z"/>
<path d="M1850 6690 c0 -14 7 -20 22 -20 20 0 21 1 3 20 -10 11 -20 20 -22 20
-1 0 -3 -9 -3 -20z"/>
<path d="M9113 6185 c5 -14 63 -18 84 -7 13 8 4 11 -35 13 -32 3 -51 0 -49 -6z"/>
<path d="M8790 6139 c0 -5 5 -7 10 -4 6 3 10 8 10 11 0 2 -4 4 -10 4 -5 0 -10
-5 -10 -11z"/>
<path d="M1860 6000 c0 -5 5 -10 10 -10 6 0 10 5 10 10 0 6 -4 10 -10 10 -5 0
-10 -4 -10 -10z"/>
<path d="M7956 5501 c5 -5 23 -12 39 -16 30 -6 30 -6 -4 10 -38 17 -49 19 -35
6z"/>
<path d="M1950 5462 c0 -12 19 -26 26 -19 2 2 -2 10 -11 17 -9 8 -15 8 -15 2z"/>
<path d="M2005 5410 c10 -11 20 -20 23 -20 3 0 -3 9 -13 20 -10 11 -20 20 -23
20 -3 0 3 -9 13 -20z"/>
<path d="M8635 5130 c-3 -6 1 -7 9 -4 18 7 21 14 7 14 -6 0 -13 -4 -16 -10z"/>
<path d="M8498 5064 c-16 -8 -28 -17 -28 -19 0 -6 32 6 55 22 26 18 7 16 -27
-3z"/>
<path d="M8270 4939 c0 -5 5 -7 10 -4 6 3 10 8 10 11 0 2 -4 4 -10 4 -5 0 -10
-5 -10 -11z"/>
<path d="M8265 4850 c-4 -6 3 -10 14 -10 25 0 27 6 6 13 -8 4 -17 2 -20 -3z"/>
<path d="M8295 4710 c39 -11 75 -18 80 -16 17 6 -42 25 -97 31 l-53 5 70 -20z"/>
<path d="M8640 4720 c0 -5 7 -7 15 -4 8 4 15 8 15 10 0 2 -7 4 -15 4 -8 0 -15
-4 -15 -10z"/>
<path d="M8565 4700 c-18 -8 -18 -9 5 -9 14 0 34 4 45 9 18 8 18 9 -5 9 -14 0
-34 -4 -45 -9z"/>
<path d="M8300 4160 c-8 -5 -10 -10 -5 -10 6 0 17 5 25 10 8 5 11 10 5 10 -5
0 -17 -5 -25 -10z"/>
<path d="M2002 3655 c-44 -19 -101 -64 -114 -89 -8 -15 -1 -12 23 10 47 44
107 74 149 75 29 0 31 2 15 9 -28 12 -35 11 -73 -5z"/>
<path d="M2165 3626 c22 -8 49 -15 60 -15 37 -1 -8 18 -56 23 l-44 6 40 -14z"/>
<path d="M2268 3603 c12 -2 30 -2 40 0 9 3 -1 5 -23 4 -22 0 -30 -2 -17 -4z"/>
<path d="M1395 3505 l-30 -14 41 6 c24 3 71 -2 113 -12 84 -21 108 -13 30 9
-87 24 -122 27 -154 11z"/>
<path d="M1755 3493 c-22 -8 -62 -16 -88 -18 -65 -4 -73 -15 -10 -15 53 0 143
26 143 41 0 5 -1 9 -2 8 -2 0 -21 -7 -43 -16z"/>
<path d="M1685 3080 c-3 -5 1 -10 9 -10 9 0 16 5 16 10 0 6 -4 10 -9 10 -6 0
-13 -4 -16 -10z"/>
<path d="M6902 2188 c6 -18 28 -21 28 -4 0 9 -7 16 -16 16 -9 0 -14 -5 -12
-12z"/>
<path d="M6705 2050 c3 -5 8 -10 11 -10 2 0 4 5 4 10 0 6 -5 10 -11 10 -5 0
-7 -4 -4 -10z"/>
<path d="M7885 1620 c3 -5 8 -10 11 -10 2 0 4 5 4 10 0 6 -5 10 -11 10 -5 0
-7 -4 -4 -10z"/>
<path d="M1896 1544 c-10 -25 1 -29 14 -5 6 12 7 21 1 21 -5 0 -12 -7 -15 -16z"/>
<path d="M6710 980 c0 -5 5 -10 10 -10 6 0 10 5 10 10 0 6 -4 10 -10 10 -5 0
-10 -4 -10 -10z"/>
<path d="M3520 960 c0 -5 7 -7 15 -4 8 4 15 8 15 10 0 2 -7 4 -15 4 -8 0 -15
-4 -15 -10z"/>
<path d="M3238 403 c7 -3 16 -2 19 1 4 3 -2 6 -13 5 -11 0 -14 -3 -6 -6z"/>
<path d="M7328 243 c7 -3 16 -2 19 1 4 3 -2 6 -13 5 -11 0 -14 -3 -6 -6z"/>
<path d="M7030 206 c0 -2 13 -6 29 -8 17 -2 28 -1 25 4 -5 8 -54 12 -54 4z"/>
<path d="M7360 174 c0 -19 4 -33 8 -30 8 5 4 66 -4 66 -2 0 -4 -16 -4 -36z"/>
<path d="M7653 194 c-3 -9 2 -23 13 -32 17 -16 17 -16 5 0 -7 10 -11 25 -7 33
3 8 3 15 0 15 -2 0 -7 -7 -11 -16z"/>
<path d="M7276 182 c-3 -5 3 -12 13 -15 11 -2 21 -15 24 -28 4 -21 4 -22 6 -3
1 23 -34 61 -43 46z"/>
<path d="M7110 171 c0 -5 7 -12 16 -15 14 -5 15 -4 4 9 -14 17 -20 19 -20 6z"/>
<path d="M7543 150 c-6 -17 -8 -30 -3 -30 8 0 24 50 18 56 -2 2 -9 -10 -15
-26z"/>
<path d="M7210 150 c0 -11 4 -20 9 -20 5 0 7 9 4 20 -3 11 -7 20 -9 20 -2 0
-4 -9 -4 -20z"/>
<path d="M7171 144 c0 -11 3 -14 6 -6 3 7 2 16 -1 19 -3 4 -6 -2 -5 -13z"/>
<path d="M7451 143 c7 -10 15 -20 16 -22 2 -2 3 5 3 17 0 14 -6 22 -16 22 -14
0 -15 -3 -3 -17z"/>
<path d="M7411 134 c0 -11 3 -14 6 -6 3 7 2 16 -1 19 -3 4 -6 -2 -5 -13z"/>
<path d="M7122 124 c-13 -6 -20 -14 -14 -18 10 -6 50 19 42 27 -3 2 -16 -2
-28 -9z"/>
<path d="M7695 130 c3 -5 8 -10 11 -10 2 0 4 5 4 10 0 6 -5 10 -11 10 -5 0 -7
-4 -4 -10z"/>
<path d="M7680 60 c-23 -7 -23 -8 -3 -9 12 -1 25 4 28 9 3 6 5 10 3 9 -2 -1
-14 -5 -28 -9z"/>
<path d="M7613 43 c9 -2 23 -2 30 0 6 3 -1 5 -18 5 -16 0 -22 -2 -12 -5z"/>
<path d="M7548 33 c6 -2 18 -2 25 0 6 3 1 5 -13 5 -14 0 -19 -2 -12 -5z"/>
</g>
</svg>
