<?xml version="1.0" standalone="no"?>
<!DOCTYPE svg PUBLIC "-//W3C//DTD SVG 20010904//EN"
 "http://www.w3.org/TR/2001/REC-SVG-20010904/DTD/svg10.dtd">
<svg version="1.0" xmlns="http://www.w3.org/2000/svg"
 width="750.000000pt" height="750.000000pt" viewBox="0 0 750.000000 750.000000"
 preserveAspectRatio="xMidYMid meet">

<g transform="translate(0.000000,750.000000) scale(0.100000,-0.100000)"
fill="#000000" stroke="none">
<path d="M2628 7475 c-22 -29 -22 -35 -3 -35 9 0 18 -7 21 -15 7 -18 -20 -43
-93 -85 -41 -23 -59 -42 -78 -81 -15 -28 -31 -48 -38 -46 -7 2 -29 -4 -49 -14
-21 -11 -58 -19 -87 -19 -103 0 -211 -66 -211 -128 0 -25 -17 -39 -22 -18 -2
11 -15 6 -50 -21 -52 -40 -55 -49 -14 -34 42 17 30 -2 -22 -31 -50 -28 -109
-84 -100 -93 3 -4 30 5 59 19 56 28 84 32 94 16 3 -5 15 -10 26 -10 26 0 24
-6 -18 -58 -20 -24 -42 -63 -50 -86 -8 -22 -32 -63 -53 -91 -59 -78 -65 -93
-45 -115 11 -12 14 -26 10 -40 -5 -14 -1 -25 9 -33 9 -7 17 -28 19 -47 3 -26
11 -38 31 -49 26 -12 28 -16 21 -57 -3 -24 -2 -52 4 -62 7 -13 6 -27 -5 -46
-8 -16 -14 -46 -14 -67 0 -21 -9 -61 -20 -90 -27 -68 -30 -153 -6 -199 20 -38
29 -66 52 -149 8 -30 20 -61 26 -69 8 -9 13 -90 16 -240 l4 -227 43 -42 c70
-68 184 -280 185 -342 0 -18 3 -22 11 -14 7 7 3 49 -15 144 -14 74 -28 161
-32 194 -5 42 -9 54 -14 40 -6 -16 -9 -12 -14 20 -9 51 0 314 13 363 5 20 12
50 15 65 5 20 16 32 37 39 24 8 27 13 18 25 -9 10 -9 17 -1 25 7 7 12 22 12
34 0 13 5 26 10 29 6 4 8 16 4 28 -6 19 -5 20 9 9 14 -12 17 -8 27 30 7 24 23
62 37 86 13 24 22 50 19 58 -3 9 1 28 9 43 7 15 11 38 8 49 -3 12 -1 22 5 22
13 0 52 79 46 95 -6 15 91 87 122 91 26 2 92 44 119 74 11 12 20 32 20 43 0
13 7 23 19 25 27 6 40 -12 27 -37 -15 -28 14 -78 35 -60 14 11 34 5 34 -11 0
-5 -10 -19 -22 -31 -17 -16 -19 -20 -6 -16 10 3 20 2 23 -4 4 -5 14 -8 23 -7
10 2 16 -3 14 -10 -4 -22 21 -93 32 -89 5 2 14 16 19 33 12 34 28 48 39 31 10
-17 17 -5 31 49 7 30 18 50 28 52 22 4 34 -40 14 -51 -8 -4 -15 -15 -15 -22 0
-17 11 -19 26 -6 5 5 24 12 42 16 l32 7 0 -57 c0 -35 4 -54 10 -50 6 3 10 16
10 29 0 13 9 31 19 40 24 22 45 13 31 -14 -7 -14 -5 -21 10 -31 14 -10 23 -32
30 -73 11 -66 25 -90 40 -66 5 8 10 23 10 33 0 10 8 17 20 17 23 0 28 -35 6
-47 -15 -8 -19 -24 -17 -58 2 -20 2 -20 16 -1 15 20 15 20 30 0 14 -19 14 -19
30 4 9 12 22 22 30 22 15 0 35 30 35 53 0 8 16 41 35 73 19 32 35 67 35 78 1
21 1 21 15 2 14 -19 15 -19 15 6 0 34 16 45 25 17 11 -33 17 -15 27 73 12 108
12 110 7 128 -2 8 2 14 9 13 7 -2 12 7 12 22 0 33 -69 112 -82 93 -12 -19 -29
11 -21 37 8 26 7 326 -2 354 -4 13 -13 20 -23 19 -15 -3 -17 8 -18 72 0 41 -6
93 -12 114 -6 22 -9 43 -6 48 3 5 7 57 10 116 2 59 6 128 10 155 l6 47 -419 0
-418 -1 -17 -24z m106 -16 c26 -20 36 -44 15 -37 -6 2 -10 8 -9 13 1 6 -9 12
-21 15 -12 3 -24 11 -27 18 -6 18 12 15 42 -9z m-159 -189 c3 -6 -5 -10 -19
-10 -13 0 -36 -4 -50 -10 -34 -13 -33 -5 2 14 32 18 58 20 67 6z m11 -125 c-8
-8 -22 -15 -30 -15 -9 0 -16 7 -16 15 0 10 10 15 31 15 27 0 29 -2 15 -15z
m-366 -24 c0 -11 -25 -21 -52 -21 -17 0 -18 3 -8 15 13 16 60 21 60 6z m225
-1 c-3 -5 -11 -10 -16 -10 -6 0 -7 5 -4 10 3 6 11 10 16 10 6 0 7 -4 4 -10z
m572 -192 c-3 -8 -6 -5 -6 6 -1 11 2 17 5 13 3 -3 4 -12 1 -19z m3 -22 c8 -1
17 -10 20 -21 7 -25 40 -32 52 -11 15 26 23 18 23 -21 0 -31 -4 -38 -20 -38
-15 0 -19 -6 -18 -23 2 -19 -1 -21 -22 -16 -20 5 -27 1 -33 -17 -12 -32 -26
-7 -25 48 1 33 -3 43 -16 43 -21 0 -42 45 -28 59 6 6 20 8 32 5 11 -4 27 -7
35 -8z m-433 -68 c-3 -8 -6 -5 -6 6 -1 11 2 17 5 13 3 -3 4 -12 1 -19z m540
-66 c6 -11 8 -24 3 -33 -11 -17 -16 -12 -25 24 -8 31 5 36 22 9z m123 -8 c0
-8 -4 -12 -10 -9 -5 3 -10 10 -10 16 0 5 5 9 10 9 6 0 10 -7 10 -16z m-990
-18 c0 -3 -4 -8 -10 -11 -5 -3 -10 -1 -10 4 0 6 5 11 10 11 6 0 10 -2 10 -4z
m300 -46 c24 -15 7 -18 -25 -4 -23 10 -25 13 -10 13 11 1 27 -3 35 -9z m724 4
c17 -6 23 -54 7 -54 -10 0 -26 19 -34 43 -7 18 1 21 27 11z m-87 -66 c9 -22
-12 -88 -29 -88 -5 0 -4 9 2 19 13 25 -8 42 -22 17 -15 -27 -28 -18 -28 19 0
52 57 77 77 33z m-567 -77 c0 -11 -80 -64 -87 -57 -6 6 12 25 47 49 27 19 40
22 40 8z m186 -148 c-10 -10 -19 5 -10 18 6 11 8 11 12 0 2 -7 1 -15 -2 -18z
m299 -149 c-32 -16 -35 -17 -35 -6 0 12 43 31 53 25 5 -3 -4 -11 -18 -19z
m-645 -118 c0 -2 -7 -6 -15 -10 -8 -3 -15 -1 -15 4 0 6 7 10 15 10 8 0 15 -2
15 -4z m-453 -108 c-3 -8 -6 -5 -6 6 -1 11 2 17 5 13 3 -3 4 -12 1 -19z"/>
<path d="M3604 7468 c3 -18 10 -64 16 -103 6 -38 18 -101 27 -140 9 -38 18
-97 19 -130 2 -34 8 -74 15 -90 6 -17 12 -73 13 -125 2 -75 7 -107 26 -148 20
-47 22 -58 11 -87 -6 -18 -10 -57 -9 -86 1 -43 -3 -62 -24 -94 -34 -53 -44
-137 -22 -196 10 -28 15 -76 15 -134 0 -49 5 -128 11 -175 6 -47 12 -112 13
-145 3 -69 33 -242 46 -267 5 -9 9 -97 9 -195 0 -143 3 -183 15 -199 8 -10 20
-37 26 -59 6 -21 24 -54 39 -73 27 -33 28 -38 23 -111 -3 -42 -10 -84 -15 -94
-5 -10 -13 -44 -18 -75 -6 -31 -20 -70 -32 -87 -19 -25 -23 -44 -24 -115 -1
-47 -7 -98 -14 -115 -16 -40 -14 -104 7 -162 9 -27 17 -79 19 -118 1 -38 7
-119 12 -180 9 -94 8 -113 -5 -134 -14 -21 -14 -31 1 -100 8 -42 17 -126 19
-187 2 -96 6 -114 25 -139 12 -15 23 -33 23 -39 7 -53 10 -143 7 -261 -4 -182
-4 -491 0 -630 2 -60 2 -126 1 -145 -1 -19 -2 -89 -1 -155 0 -66 0 -151 -1
-190 -1 -38 0 -115 2 -170 5 -104 -6 -254 -20 -292 -6 -17 -17 -23 -38 -23
-30 0 -99 -10 -376 -56 -82 -14 -185 -28 -228 -31 -43 -3 -80 -10 -83 -15 -3
-5 5 -23 19 -41 85 -112 75 -228 -23 -271 -56 -25 -104 -17 -152 23 -64 54
-249 151 -287 151 l-26 -1 28 -24 c15 -14 34 -25 40 -25 16 0 70 -28 124 -64
38 -25 42 -31 36 -60 -3 -17 -12 -36 -21 -43 -13 -11 -8 -22 37 -88 28 -42 51
-78 51 -80 0 -2 30 -50 66 -105 102 -158 111 -199 68 -306 l-25 -64 19 -27
c11 -16 30 -37 42 -48 43 -38 53 -81 52 -208 l-1 -117 128 0 128 0 13 59 c9
44 9 67 1 92 -6 19 -60 110 -121 203 l-110 169 0 77 c0 43 3 92 6 110 6 29 9
31 37 26 16 -3 35 -2 41 3 20 15 70 19 122 10 34 -6 61 -6 79 1 24 9 26 14 20
43 -4 17 -9 72 -12 120 -6 113 7 137 71 137 49 0 225 33 290 55 79 26 123 35
184 36 53 1 62 4 62 20 0 16 3 17 25 7 21 -9 28 -8 45 7 20 18 29 82 10 70
-20 -13 -21 26 -2 67 22 47 36 204 47 537 4 109 12 188 21 213 9 27 14 83 14
161 l0 121 94 91 c51 49 137 148 190 218 53 70 105 136 114 146 9 10 38 41 64
70 48 53 65 55 48 5 -7 -24 -30 -187 -30 -219 0 -5 10 6 22 25 17 28 23 55 26
130 5 105 13 130 43 130 14 0 21 -9 26 -32 l6 -32 14 38 c7 21 29 56 48 77 19
22 35 46 35 54 0 9 9 15 22 15 21 0 59 -36 201 -188 84 -91 99 -92 133 -7 53
129 83 289 104 555 13 158 53 398 73 433 20 35 49 67 63 67 32 0 124 43 163
76 73 63 93 126 111 359 6 77 18 203 26 280 21 201 22 228 13 286 -12 76 -28
89 -111 89 -81 0 -83 2 -83 105 1 51 10 98 34 175 33 103 33 107 27 235 -8
167 22 496 54 602 20 65 21 81 12 150 -13 93 -27 114 -118 175 -58 38 -76 57
-102 107 -18 33 -43 68 -56 78 -33 27 -76 98 -76 129 0 16 -14 40 -37 65 -62
64 -73 79 -85 104 -6 14 -16 25 -21 25 -5 0 -33 20 -62 45 -29 24 -64 50 -79
56 -19 9 -26 18 -22 32 6 24 -47 57 -94 57 -31 1 -33 2 -17 14 24 19 21 62 -8
100 -14 18 -25 38 -25 44 0 7 -6 12 -14 12 -7 0 -24 8 -37 19 -13 10 -33 20
-44 22 -11 3 -20 11 -20 19 0 8 -11 17 -24 20 -13 3 -29 14 -35 24 -6 10 -24
31 -39 47 l-28 28 -590 1 -591 0 6 -32z m1481 -868 c-3 -5 -11 -10 -16 -10 -6
0 -7 5 -4 10 3 6 11 10 16 10 6 0 7 -4 4 -10z m-115 -69 c0 -16 -29 -33 -52
-29 -22 3 -22 4 7 20 34 20 45 22 45 9z m-125 -101 c-3 -5 -11 -10 -16 -10 -6
0 -7 5 -4 10 3 6 11 10 16 10 6 0 7 -4 4 -10z m-247 -190 c-7 -11 -18 -20 -25
-20 -18 0 -16 10 5 26 25 20 34 17 20 -6z m77 -8 c-42 -26 -64 -32 -70 -22 -3
4 8 11 25 15 16 4 32 11 35 16 4 5 14 9 23 9 11 0 7 -6 -13 -18z m-25 -61 c0
-5 -6 -14 -14 -20 -11 -9 -7 -18 21 -46 19 -19 41 -35 49 -35 15 0 65 -28 75
-43 4 -5 16 -4 27 2 26 14 45 14 37 1 -3 -5 -15 -10 -27 -10 -16 0 -18 -3 -9
-14 6 -7 9 -20 6 -29 -4 -8 1 -32 11 -53 17 -40 20 -102 5 -117 -22 -22 118
-227 155 -227 14 0 46 -64 50 -100 1 -14 8 -70 14 -125 13 -124 30 -199 66
-295 24 -65 28 -89 28 -184 0 -126 10 -113 25 30 6 60 6 126 1 178 -19 160 30
303 141 421 40 41 53 49 84 49 29 0 44 -7 65 -31 59 -66 84 -251 55 -413 -9
-52 -20 -158 -25 -235 -5 -102 -16 -178 -40 -278 -32 -134 -34 -140 -79 -185
-102 -105 -296 -150 -263 -61 27 70 50 373 28 366 -6 -2 -11 -17 -12 -33 -1
-16 -11 -76 -23 -134 -22 -103 -62 -442 -81 -670 -10 -124 -36 -316 -45 -331
-3 -5 -10 -34 -15 -65 -9 -55 -17 -76 -86 -219 -19 -39 -34 -75 -34 -82 0 -6
-25 -37 -56 -70 -31 -32 -66 -72 -78 -89 -49 -72 -108 -145 -176 -215 -39 -40
-99 -107 -133 -147 -59 -69 -181 -172 -206 -172 -15 0 -15 184 0 285 14 91 -1
229 -31 300 -34 79 -20 239 22 266 15 9 0 29 -21 29 -10 0 -26 9 -36 20 -16
17 -18 44 -20 232 -2 145 -8 241 -19 299 -15 78 -15 94 -1 180 8 52 15 110 15
130 0 20 13 67 28 105 16 38 34 92 41 121 15 62 10 215 -8 221 -6 2 -11 13
-11 24 0 11 -9 31 -20 45 -27 34 -27 93 0 116 32 27 58 21 82 -18 25 -44 89
-79 128 -70 15 3 43 19 61 36 26 23 34 40 39 77 l5 47 58 -1 c46 -1 68 -8 108
-33 55 -34 71 -37 87 -18 7 8 2 27 -17 62 -29 55 -40 60 -153 70 -75 7 -76 14
-2 54 21 12 53 30 69 41 22 14 54 20 117 23 48 2 93 8 100 13 39 29 67 37 83
24 13 -11 15 -8 15 19 0 24 -5 32 -22 35 -13 3 -36 8 -53 11 -62 14 -135 17
-135 6 0 -7 -21 -11 -51 -11 -46 0 -50 -2 -44 -20 5 -15 0 -21 -22 -26 -15 -4
-39 -16 -53 -26 -17 -12 -48 -19 -100 -22 -42 -2 -100 -14 -132 -26 -45 -17
-74 -20 -145 -18 l-88 3 -6 55 c-3 30 -11 71 -17 90 -25 84 -49 285 -63 535
-5 94 -12 196 -15 227 -6 53 -4 59 20 81 28 27 90 38 127 25 14 -5 33 -3 52 7
39 19 78 19 144 -2 39 -12 56 -14 61 -6 11 18 58 26 80 14 30 -16 133 6 131
28 -1 9 -1 19 0 24 1 10 71 9 71 -2z m-330 -1287 c0 -17 -22 -14 -28 4 -2 7 3
12 12 12 9 0 16 -7 16 -16z m-1096 -4039 c-9 -14 -21 -25 -26 -25 -9 0 -3 15
17 37 19 22 26 13 9 -12z"/>
<path d="M5418 5398 c-30 -32 -58 -67 -58 -73 0 -3 6 -5 13 -5 14 0 81 89 73
97 -3 3 -15 -6 -28 -19z"/>
<path d="M4635 5090 c-3 -6 1 -7 9 -4 18 7 21 14 7 14 -6 0 -13 -4 -16 -10z"/>
<path d="M4622 4814 c-12 -8 -20 -20 -17 -25 10 -15 45 -10 52 7 9 25 -10 36
-35 18z"/>
<path d="M4560 4770 c0 -5 9 -10 21 -10 11 0 17 5 14 10 -3 6 -13 10 -21 10
-8 0 -14 -4 -14 -10z"/>
<path d="M2760 6215 c-14 -16 -10 -18 14 -9 9 3 16 10 16 15 0 14 -16 11 -30
-6z"/>
<path d="M3420 5970 c0 -5 5 -10 10 -10 6 0 10 5 10 10 0 6 -4 10 -10 10 -5 0
-10 -4 -10 -10z"/>
<path d="M2701 5114 c-18 -8 -47 -14 -64 -14 -36 0 -117 -45 -117 -65 0 -16
12 -18 68 -15 17 1 32 -3 32 -9 0 -7 22 -8 63 -5 43 4 77 1 112 -11 82 -27
229 -64 245 -62 8 0 31 -2 50 -5 19 -4 52 -10 73 -13 65 -10 40 -25 -45 -27
-46 0 -67 -3 -48 -5 77 -7 207 -36 240 -53 22 -11 48 -16 68 -13 18 3 38 0 46
-6 22 -18 31 6 12 28 -16 17 -16 19 0 25 13 5 16 16 12 54 -4 45 -10 61 -51
136 -14 27 -50 55 -69 56 -5 0 -8 -9 -8 -20 0 -24 -13 -26 -30 -5 -17 20 -50
19 -50 -1 0 -12 -5 -15 -22 -9 -13 4 -39 9 -58 11 -19 2 -72 8 -118 14 -46 6
-87 8 -92 5 -4 -3 -21 -1 -36 4 -54 17 -177 20 -213 5z m579 -244 c0 -5 -5
-10 -11 -10 -5 0 -7 5 -4 10 3 6 8 10 11 10 2 0 4 -4 4 -10z"/>
<path d="M1968 5023 c-27 -7 -22 -33 6 -33 14 0 34 -12 49 -29 15 -19 29 -26
37 -21 10 6 8 15 -9 39 -19 27 -53 53 -63 50 -2 -1 -11 -3 -20 -6z"/>
<path d="M2810 4877 c-47 -5 -81 -14 -90 -24 -12 -13 -12 -14 -1 -8 20 12 120
14 127 4 7 -12 -56 -49 -83 -49 -12 0 -25 -4 -28 -10 -3 -5 -19 -10 -34 -10
-33 0 -54 -20 -45 -43 13 -36 53 -31 144 17 75 40 91 38 116 -14 14 -30 37
-56 65 -74 l43 -29 35 19 c54 27 79 53 87 88 3 17 13 39 21 48 14 15 11 19
-31 39 -43 20 -73 26 -136 29 -23 1 -24 2 -7 14 16 12 10 14 -45 13 -35 -1
-97 -6 -138 -10z m240 -87 c0 -5 -4 -10 -10 -10 -5 0 -10 5 -10 10 0 6 5 10
10 10 6 0 10 -4 10 -10z"/>
<path d="M2215 4730 c3 -5 11 -10 16 -10 6 0 7 5 4 10 -3 6 -11 10 -16 10 -6
0 -7 -4 -4 -10z"/>
<path d="M2250 4692 c6 -13 14 -21 18 -18 3 4 -2 14 -12 24 -18 16 -18 16 -6
-6z"/>
<path d="M1949 4533 c-7 -17 -9 -66 -6 -123 5 -93 18 -142 77 -290 36 -91 70
-200 96 -305 50 -202 63 -234 111 -286 34 -37 53 -49 75 -49 16 0 45 -7 65
-15 22 -9 49 -13 69 -9 27 5 35 2 47 -18 16 -24 49 -141 87 -308 12 -52 32
-129 45 -170 25 -80 52 -192 59 -250 6 -49 -3 270 -10 353 -4 45 -3 67 5 67 6
0 11 -8 11 -17 0 -30 55 -100 173 -227 63 -67 161 -173 219 -236 162 -177 256
-254 388 -317 100 -49 148 -62 240 -68 90 -6 139 7 132 36 -2 8 -5 24 -6 37
-2 12 -5 25 -9 28 -7 7 -147 34 -202 39 -74 6 -149 38 -290 123 -109 66 -122
77 -255 207 -175 171 -283 297 -335 390 -37 67 -58 94 -72 95 -7 0 -15 10 -18
23 -3 12 -14 63 -25 112 -40 181 -140 568 -150 585 -6 10 -16 6 -39 -17 -58
-58 -142 -50 -218 20 -48 44 -71 84 -96 162 -35 112 -105 344 -121 398 -19 63
-31 71 -47 30z m721 -1368 c0 -8 -2 -15 -4 -15 -2 0 -6 7 -10 15 -3 8 -1 15 4
15 6 0 10 -7 10 -15z"/>
<path d="M2351 4328 c18 -58 38 -98 26 -53 -3 11 -10 41 -17 68 -7 26 -16 47
-20 47 -4 0 1 -28 11 -62z"/>
<path d="M2414 4115 c6 -19 14 -35 18 -35 11 0 10 7 -7 40 -21 40 -24 38 -11
-5z"/>
<path d="M3535 3820 c-3 -6 4 -14 17 -19 13 -5 40 -16 61 -25 31 -14 37 -14
37 -2 0 36 -97 75 -115 46z"/>
<path d="M3463 3797 c2 -7 14 -14 26 -15 28 -4 20 13 -9 21 -14 3 -20 1 -17
-6z"/>
<path d="M3432 3312 c-67 -24 -71 -27 -45 -34 44 -10 221 -16 231 -6 4 4 30 8
57 9 47 2 105 30 105 51 0 4 -62 8 -137 7 -122 -1 -146 -4 -211 -27z"/>
<path d="M4901 2806 c-1 -16 3 -45 9 -65 5 -20 12 -57 15 -83 4 -27 11 -48 17
-48 15 0 3 91 -21 166 -15 46 -19 53 -20 30z"/>
<path d="M1434 2306 c-3 -7 1 -40 10 -72 8 -33 24 -108 36 -169 28 -144 134
-582 186 -767 8 -26 15 -23 77 31 31 27 66 56 79 65 20 14 21 17 6 28 -20 16
-41 97 -62 238 -9 58 -23 150 -32 205 -8 55 -19 132 -24 170 -12 96 -30 207
-35 216 -3 4 -19 9 -37 12 -18 3 -66 17 -107 31 -85 30 -90 31 -97 12z"/>
<path d="M5708 2165 c-23 -13 -39 -14 -95 -4 -78 12 -220 5 -333 -17 -72 -15
-227 -82 -250 -109 -10 -12 -50 -201 -50 -237 0 -11 44 -47 123 -99 67 -45
164 -114 215 -153 51 -39 117 -87 145 -107 48 -33 58 -49 127 -185 41 -82 80
-148 85 -147 13 2 35 108 96 463 26 150 35 427 17 530 -14 83 -28 94 -80 65z"/>
<path d="M2347 1253 c-16 -15 -5 -25 21 -18 41 10 51 25 16 25 -17 0 -34 -3
-37 -7z"/>
<path d="M2760 1151 c0 -5 7 -14 15 -21 16 -14 18 -10 9 14 -6 17 -24 22 -24
7z"/>
<path d="M1540 1135 c-11 -13 -10 -14 4 -9 9 3 16 10 16 15 0 13 -6 11 -20 -6z"/>
<path d="M2802 1099 c2 -7 10 -15 17 -17 8 -3 12 1 9 9 -2 7 -10 15 -17 17 -8
3 -12 -1 -9 -9z"/>
<path d="M1500 1075 c-7 -14 -11 -28 -7 -31 3 -3 13 8 22 25 8 17 12 31 7 31
-5 0 -15 -11 -22 -25z"/>
<path d="M2840 1060 c0 -5 5 -10 11 -10 5 0 7 5 4 10 -3 6 -8 10 -11 10 -2 0
-4 -4 -4 -10z"/>
<path d="M1252 811 c-30 -49 -46 -131 -36 -187 l8 -49 7 83 c5 52 16 100 30
128 25 53 19 71 -9 25z"/>
<path d="M3747 750 c-51 -41 -42 -97 20 -129 34 -17 42 -18 71 -5 37 15 54 50
43 91 -6 23 -14 29 -42 31 -19 2 -38 10 -42 18 -11 19 -20 18 -50 -6z m66 -57
c-7 -2 -19 -2 -25 0 -7 3 -2 5 12 5 14 0 19 -2 13 -5z"/>
<path d="M1255 478 c24 -76 35 -87 35 -35 0 22 -7 36 -21 45 -19 12 -20 12
-14 -10z"/>
<path d="M1323 165 c4 -17 12 -60 19 -97 13 -71 28 -92 25 -35 -1 17 2 50 6
72 6 37 4 42 -25 65 l-31 24 6 -29z"/>
<path d="M6053 25 c-19 -17 -23 -24 -12 -25 8 0 20 5 26 11 11 11 122 8 248
-7 40 -5 48 -3 38 7 -7 7 -27 12 -45 12 -18 -1 -71 5 -117 13 -108 18 -105 18
-138 -11z"/>
</g>
</svg>
